<?xml version="1.0" encoding="utf-8"?>
<!-- Generator: Adobe Illustrator 24.0.0, SVG Export Plug-In . SVG Version: 6.00 Build 0)  -->
<svg version="1.1" id="Calque_1" xmlns="http://www.w3.org/2000/svg" xmlns:xlink="http://www.w3.org/1999/xlink" x="0px" y="0px"
	 viewBox="0 0 200 300" style="enable-background:new 0 0 200 300;" xml:space="preserve">
<style type="text/css">
	.st0{fill:#CCCCCC;}
	.st1{enable-background:new    ;}
	.st2{fill:#2656A5;}
	.st3{fill:#002481;}
	.st4{fill:#AAB7EE;}
</style>
<title>dark-placeholder-book</title>
<g id="Calque_2_1_">
	<g id="Calque_1-2">
		<path class="st0" d="M10,0h180c5.5,0,10,4.5,10,10v280c0,5.5-4.5,10-10,10H10c-5.5,0-10-4.5-10-10V10C0,4.5,4.5,0,10,0z"/>
		<g class="st1">
			<path class="st2" d="M31.5,81.9v-24h3.7c1.8,0,3.3,0.6,4.5,1.8s1.8,2.6,1.8,4.2c0,2.2-1,3.9-3.1,5.2c2.4,1.1,3.7,3.1,3.7,6
				c0,2-0.7,3.7-2,5s-3.2,1.9-5.6,1.9H31.5z M34.5,68.1h0.3c1.1,0,1.9-0.3,2.6-1s1-1.6,1-2.7s-0.3-2-0.9-2.6s-1.5-0.9-2.6-0.9h-0.3
				V68.1z M34.5,79.1h0.5c1.2,0,2.1-0.3,2.8-1c0.7-0.7,1-1.7,1-2.9c0-1.2-0.3-2.2-1-3c-0.7-0.8-1.6-1.1-2.8-1.1h-0.5V79.1z"/>
			<path class="st2" d="M52.6,82.3c-1.9,0-3.4-1.1-4.6-3.3s-1.8-5.2-1.8-9c0-3.6,0.6-6.6,1.7-8.9s2.7-3.5,4.7-3.5
				c2,0,3.5,1.1,4.7,3.4s1.7,5.3,1.7,8.9c0,3.9-0.6,6.9-1.8,9.1S54.5,82.3,52.6,82.3z M52.6,60.5c-1,0-1.8,0.8-2.3,2.5
				c-0.5,1.7-0.8,4-0.8,6.9c0,3.1,0.3,5.4,0.8,7s1.4,2.4,2.4,2.4c1,0,1.8-0.8,2.3-2.5s0.9-4,0.9-7c0-3-0.3-5.4-0.9-7
				C54.4,61.3,53.6,60.5,52.6,60.5z"/>
			<path class="st2" d="M69.8,82.3c-1.9,0-3.4-1.1-4.6-3.3s-1.8-5.2-1.8-9c0-3.6,0.6-6.6,1.7-8.9s2.7-3.5,4.7-3.5
				c2,0,3.5,1.1,4.7,3.4s1.7,5.3,1.7,8.9c0,3.9-0.6,6.9-1.8,9.1S71.6,82.3,69.8,82.3z M69.7,60.5c-1,0-1.8,0.8-2.3,2.5
				c-0.5,1.7-0.8,4-0.8,6.9c0,3.1,0.3,5.4,0.8,7s1.4,2.4,2.4,2.4c1,0,1.8-0.8,2.3-2.5s0.9-4,0.9-7c0-3-0.3-5.4-0.9-7
				C71.6,61.3,70.8,60.5,69.7,60.5z"/>
			<path class="st2" d="M81.4,81.9v-24h3.1v24H81.4z M88.9,81.9l-4.3-12.2l3.4-11.8h3.2l-3.8,11.4L92,81.9H88.9z"/>
			<path class="st2" d="M111.5,81.9V60.8h-3.7v-2.9h10.5v2.9h-3.7v21.2H111.5z"/>
			<path class="st2" d="M122.5,81.9v-24h3.1v24H122.5z"/>
			<path class="st2" d="M133.5,81.9V60.8h-3.7v-2.9h10.5v2.9h-3.7v21.2H133.5z"/>
			<path class="st2" d="M144.5,81.9v-24h3.1v21.2h5.9v2.9H144.5z"/>
			<path class="st2" d="M157.5,81.9v-24h8.6v2.9h-5.5V68h5v2.9h-5v8.2h5.8v2.9H157.5z"/>
		</g>
		<g class="st1">
			<path class="st2" d="M52.4,42.9l2.3-12.1h1.6l2.3,12.1H57l-0.4-2.7h-2.2l-0.5,2.7H52.4z M54.6,38.8h1.7l-0.8-5h0L54.6,38.8z"/>
			<path class="st2" d="M61.4,30.9h1.5v9c0,1.1,0.4,1.7,1.1,1.7c0.3,0,0.6-0.1,0.8-0.4c0.2-0.3,0.3-0.7,0.3-1.2v-9.1h1.5v8.9
				c0,1.1-0.3,1.9-0.8,2.4s-1.2,0.8-1.9,0.8c-0.8,0-1.4-0.3-1.9-0.9s-0.8-1.3-0.8-2.3V30.9z"/>
			<path class="st2" d="M71.5,42.9V32.4h-1.8v-1.4h5.2v1.4H73v10.6H71.5z"/>
			<path class="st2" d="M78,42.9v-12h1.5v5.3h2.3v-5.3h1.5v12h-1.5v-5.3h-2.3v5.3H78z"/>
			<path class="st2" d="M90,43.1c-0.9,0-1.7-0.5-2.3-1.6c-0.6-1.1-0.9-2.6-0.9-4.5c0-1.8,0.3-3.3,0.8-4.4c0.6-1.2,1.4-1.7,2.4-1.7
				c1,0,1.8,0.6,2.4,1.7s0.9,2.6,0.9,4.4c0,1.9-0.3,3.4-0.9,4.5S90.9,43.1,90,43.1z M90,32.2c-0.5,0-0.9,0.4-1.2,1.3
				c-0.3,0.8-0.4,2-0.4,3.5c0,1.5,0.1,2.7,0.4,3.5c0.3,0.8,0.7,1.2,1.2,1.2c0.5,0,0.9-0.4,1.2-1.2c0.3-0.8,0.4-2,0.4-3.5
				c0-1.5-0.1-2.7-0.4-3.5C90.9,32.6,90.5,32.2,90,32.2z"/>
			<path class="st2" d="M96.7,42.9v-12H98c1,0,1.8,0.3,2.4,0.9c0.5,0.6,0.8,1.4,0.8,2.4c0,1.1-0.4,2-1.2,2.6
				c0.6,0.5,1.2,1.7,1.6,3.6l0.6,2.5h-1.6l-0.5-2.1c-0.3-1.5-0.6-2.4-0.9-2.8c-0.2-0.4-0.6-0.6-0.9-0.5v5.4H96.7z M98.3,36.1
				L98.3,36.1c0.9,0,1.4-0.6,1.4-1.8c0-1.3-0.5-1.9-1.4-1.9V36.1z"/>
			<path class="st2" d="M112.8,42.9v-12h1.3l2.7,7.4l0,0v-7.4h1.4v12H117l-2.7-7.5l0,0v7.5H112.8z"/>
			<path class="st2" d="M121.2,42.9l2.3-12.1h1.6l2.3,12.1h-1.5l-0.4-2.7h-2.2l-0.5,2.7H121.2z M123.4,38.8h1.7l-0.8-5h0L123.4,38.8
				z"/>
			<path class="st2" d="M133.3,35.3l1.8-4.4h1.3v12h-1.5l0.1-8.7l0,0l-1.5,4h-0.3l-1.5-4l0,0l0.1,8.7h-1.5v-12h1.3L133.3,35.3z"/>
			<path class="st2" d="M140.3,42.9v-12h4.3v1.4h-2.7V36h2.5v1.4h-2.5v4.1h2.9v1.4H140.3z"/>
		</g>
		<path id="top_hill" class="st3" d="M0,150.9c0,0,19.7,17.3,50.9,17.6s46.9-24.1,78.5-36.8c21.5-8.7,70.6,6.5,70.6,6.5V288H0V150.9
			z"/>
		<path id="middle_hill" class="st4" d="M0,197.6c10.3-4,21.2-6,32.2-6c18.4,0,35.4,6.5,35.4,6.5s32.3,16.4,56.3,16.1
			S200,187,200,187v91H0V197.6z"/>
		<g id="bottom_hill">
			<path class="st0" d="M0,252.5c0,0,54.4,22,85.7,21.3s47.9-23.6,80.2-27.2c22.9-2.6,34.1,6,34.1,6V289H0V252.5z"/>
		</g>
	</g>
</g>
</svg>
